<svg xmlns="http://www.w3.org/2000/svg" width="383" height="70" fill="none"><g clip-path="url(#a)"><path fill="url(#b)" fill-opacity=".04" d="M9-116h15.17v288H9z"/><path fill="url(#c)" fill-opacity=".04" d="M31.755-116h15.17v288h-15.17z"/><path fill="url(#d)" fill-opacity=".04" d="M54.509-116h15.17v288h-15.17z"/><path fill="url(#e)" fill-opacity=".04" d="M77.264-116h15.17v288h-15.17z"/><path fill="url(#f)" fill-opacity=".04" d="M100.019-116h15.17v288h-15.17z"/><path fill="url(#g)" fill-opacity=".04" d="M122.773-116h15.17v288h-15.17z"/><path fill="url(#h)" fill-opacity=".04" d="M145.528-116h15.17v288h-15.17z"/><path fill="url(#i)" fill-opacity=".04" d="M168.283-116h15.17v288h-15.17z"/><path fill="url(#j)" fill-opacity=".04" d="M191.038-116h15.17v288h-15.17z"/><path fill="url(#k)" fill-opacity=".04" d="M213.792-116h15.17v288h-15.17z"/><path fill="url(#l)" fill-opacity=".04" d="M236.547-116h15.17v288h-15.17z"/><path fill="url(#m)" fill-opacity=".04" d="M259.302-116h15.17v288h-15.17z"/><path fill="url(#n)" fill-opacity=".04" d="M282.057-116h15.17v288h-15.17z"/><path fill="url(#o)" fill-opacity=".04" d="M304.812-116h15.17v288h-15.17z"/><path fill="url(#p)" fill-opacity=".04" d="M327.566-116h15.17v288h-15.17z"/><path fill="url(#q)" fill-opacity=".04" d="M350.321-116h15.17v288h-15.17z"/><path fill="url(#r)" fill-opacity=".04" d="M373.076-116h15.17v288h-15.17z"/><path fill="url(#s)" d="M0 0h383v70H0z"/></g><defs><linearGradient id="b" x1="16.585" x2="16.585" y1="-116" y2="172" gradientUnits="userSpaceOnUse"><stop stop-color="#fff"/><stop offset="1" stop-color="#fff" stop-opacity="0"/></linearGradient><linearGradient id="c" x1="39.34" x2="39.34" y1="-116" y2="172" gradientUnits="userSpaceOnUse"><stop stop-color="#fff"/><stop offset="1" stop-color="#fff" stop-opacity="0"/></linearGradient><linearGradient id="d" x1="62.094" x2="62.094" y1="-116" y2="172" gradientUnits="userSpaceOnUse"><stop stop-color="#fff"/><stop offset="1" stop-color="#fff" stop-opacity="0"/></linearGradient><linearGradient id="e" x1="84.849" x2="84.849" y1="-116" y2="172" gradientUnits="userSpaceOnUse"><stop stop-color="#fff"/><stop offset="1" stop-color="#fff" stop-opacity="0"/></linearGradient><linearGradient id="f" x1="107.604" x2="107.604" y1="-116" y2="172" gradientUnits="userSpaceOnUse"><stop stop-color="#fff"/><stop offset="1" stop-color="#fff" stop-opacity="0"/></linearGradient><linearGradient id="g" x1="130.358" x2="130.358" y1="-116" y2="172" gradientUnits="userSpaceOnUse"><stop stop-color="#fff"/><stop offset="1" stop-color="#fff" stop-opacity="0"/></linearGradient><linearGradient id="h" x1="153.113" x2="153.113" y1="-116" y2="172" gradientUnits="userSpaceOnUse"><stop stop-color="#fff"/><stop offset="1" stop-color="#fff" stop-opacity="0"/></linearGradient><linearGradient id="i" x1="175.868" x2="175.868" y1="-116" y2="172" gradientUnits="userSpaceOnUse"><stop stop-color="#fff"/><stop offset="1" stop-color="#fff" stop-opacity="0"/></linearGradient><linearGradient id="j" x1="198.623" x2="198.623" y1="-116" y2="172" gradientUnits="userSpaceOnUse"><stop stop-color="#fff"/><stop offset="1" stop-color="#fff" stop-opacity="0"/></linearGradient><linearGradient id="k" x1="221.377" x2="221.377" y1="-116" y2="172" gradientUnits="userSpaceOnUse"><stop stop-color="#fff"/><stop offset="1" stop-color="#fff" stop-opacity="0"/></linearGradient><linearGradient id="l" x1="244.132" x2="244.132" y1="-116" y2="172" gradientUnits="userSpaceOnUse"><stop stop-color="#fff"/><stop offset="1" stop-color="#fff" stop-opacity="0"/></linearGradient><linearGradient id="m" x1="266.887" x2="266.887" y1="-116" y2="172" gradientUnits="userSpaceOnUse"><stop stop-color="#fff"/><stop offset="1" stop-color="#fff" stop-opacity="0"/></linearGradient><linearGradient id="n" x1="289.642" x2="289.642" y1="-116" y2="172" gradientUnits="userSpaceOnUse"><stop stop-color="#fff"/><stop offset="1" stop-color="#fff" stop-opacity="0"/></linearGradient><linearGradient id="o" x1="312.396" x2="312.396" y1="-116" y2="172" gradientUnits="userSpaceOnUse"><stop stop-color="#fff"/><stop offset="1" stop-color="#fff" stop-opacity="0"/></linearGradient><linearGradient id="p" x1="335.151" x2="335.151" y1="-116" y2="172" gradientUnits="userSpaceOnUse"><stop stop-color="#fff"/><stop offset="1" stop-color="#fff" stop-opacity="0"/></linearGradient><linearGradient id="q" x1="357.906" x2="357.906" y1="-116" y2="172" gradientUnits="userSpaceOnUse"><stop stop-color="#fff"/><stop offset="1" stop-color="#fff" stop-opacity="0"/></linearGradient><linearGradient id="r" x1="380.661" x2="380.661" y1="-116" y2="172" gradientUnits="userSpaceOnUse"><stop stop-color="#fff"/><stop offset="1" stop-color="#fff" stop-opacity="0"/></linearGradient><radialGradient id="s" cx="0" cy="0" r="1" gradientTransform="matrix(0 70 -328.609 0 192.052 0)" gradientUnits="userSpaceOnUse"><stop stop-color="#000319" stop-opacity="0"/><stop offset="1" stop-color="#000319"/></radialGradient><clipPath id="a"><path fill="#fff" d="M0 0h383v70H0z"/></clipPath></defs></svg>